<svg id="KotiHome" xmlns="http://www.w3.org/2000/svg" xmlns:xlink="http://www.w3.org/1999/xlink" width="152.464" height="82" viewBox="0 0 152.464 82">
  <defs>
    <clipPath id="clip-path">
      <rect id="Rectangle_54" data-name="Rectangle 54" width="152.464" height="82" fill="#ebe4d8"/>
    </clipPath>
  </defs>
  <g id="Group_141" data-name="Group 141" clip-path="url(#clip-path)">
    <path id="Path_199" data-name="Path 199" d="M37.273,64.211a2.722,2.722,0,0,0-.96-.777l-.762-.3a1.367,1.367,0,0,1-.685-.762,7.449,7.449,0,0,1-.32-1.736L33.054,46.588A11.848,11.848,0,0,0,30.541,39.9a7.289,7.289,0,0,0-5.895-2.513,11.373,11.373,0,0,0-5.407,1.569,30.85,30.85,0,0,0-5.286,3.884V23.77a2.4,2.4,0,0,0-.564-1.645,2.057,2.057,0,0,0-1.63-.64,6.122,6.122,0,0,0-1.645.228c-.548.152-1.259.393-2.133.716L1.828,24.714a3.779,3.779,0,0,0-1.417.853A1.665,1.665,0,0,0,0,26.725a1.537,1.537,0,0,0,.3.99,2.172,2.172,0,0,0,.914.625l1.036.183a1.612,1.612,0,0,1,.807.594,2.565,2.565,0,0,1,.289,1.417V60.662a4.3,4.3,0,0,1-.244,1.721,1.581,1.581,0,0,1-.731.746l-.823.3a2.389,2.389,0,0,0-.96.762,1.864,1.864,0,0,0-.32,1.1,1.7,1.7,0,0,0,.548,1.34,2.352,2.352,0,0,0,1.615.487H14.714q2.041,0,2.041-1.858a1.825,1.825,0,0,0-1.036-1.676l-.792-.335a1.615,1.615,0,0,1-.746-.792,4.926,4.926,0,0,1-.228-1.8V46.424l.122-.11a8.867,8.867,0,0,1,2.437-1.584,5.945,5.945,0,0,1,2.254-.487,3.172,3.172,0,0,1,2.666,1.112,6.578,6.578,0,0,1,1.112,3.336l1.249,11.973a3.464,3.464,0,0,1-.152,1.8,1.863,1.863,0,0,1-.792.792l-.823.335a1.825,1.825,0,0,0-1.036,1.676q0,1.861,2.041,1.858H35.461a2.293,2.293,0,0,0,1.6-.487,1.725,1.725,0,0,0,.533-1.34,1.8,1.8,0,0,0-.32-1.082" transform="translate(0 14.878)" fill="#ebe4d8"/>
    <path id="Path_200" data-name="Path 200" d="M52.663,37.759a14.239,14.239,0,0,0-5.727-5.392,18.069,18.069,0,0,0-8.545-1.934,18.356,18.356,0,0,0-8.728,2,15.051,15.051,0,0,0-5.88,5.407,14.262,14.262,0,0,0-2.117,7.677,15.486,15.486,0,0,0,2.056,8.043,14.311,14.311,0,0,0,5.727,5.423,17.954,17.954,0,0,0,8.545,1.95,18.265,18.265,0,0,0,8.713-2,15.124,15.124,0,0,0,5.88-5.438,14.34,14.34,0,0,0,2.133-7.707,15.4,15.4,0,0,0-2.056-8.027M44.041,50.691a8.526,8.526,0,0,1-1.021,3.976,3.568,3.568,0,0,1-2.407,1.752,3.959,3.959,0,0,1-3.031-.655,8.374,8.374,0,0,1-2.62-3.229,23.5,23.5,0,0,1-1.934-5.864,23.924,23.924,0,0,1-.625-6.108,8.265,8.265,0,0,1,1.036-3.945,3.509,3.509,0,0,1,2.391-1.706,3.7,3.7,0,0,1,3.031.625,8.659,8.659,0,0,1,2.62,3.26,23.585,23.585,0,0,1,1.934,5.834,23.392,23.392,0,0,1,.625,6.062" transform="translate(15.002 21.074)" fill="#ebe4d8"/>
    <path id="Path_201" data-name="Path 201" d="M94.545,57.7a2.722,2.722,0,0,0-.96-.777l-.731-.3a1.371,1.371,0,0,1-.685-.746,7.188,7.188,0,0,1-.32-1.721L90.326,40.112a12.36,12.36,0,0,0-2.544-6.717,7.13,7.13,0,0,0-5.8-2.513,10.912,10.912,0,0,0-5.316,1.584,28.135,28.135,0,0,0-4.353,3.18,8.323,8.323,0,0,0-1.4-2.205,8.027,8.027,0,0,0-6.215-2.559,12.044,12.044,0,0,0-5.512,1.538,24.374,24.374,0,0,0-3.793,2.567v-1.73a2.358,2.358,0,0,0-.579-1.645,2.066,2.066,0,0,0-1.615-.64,6.289,6.289,0,0,0-1.66.228,19.871,19.871,0,0,0-2.117.746L43.292,34.2a3.8,3.8,0,0,0-1.417.853,1.665,1.665,0,0,0-.411,1.158,1.533,1.533,0,0,0,.3.99,2.157,2.157,0,0,0,.914.625l1.036.183a1.529,1.529,0,0,1,.823.594,2.766,2.766,0,0,1,.274,1.447V54.156a4.3,4.3,0,0,1-.244,1.721,1.58,1.58,0,0,1-.731.746l-.823.3a2.389,2.389,0,0,0-.96.762,1.864,1.864,0,0,0-.32,1.1,1.7,1.7,0,0,0,.548,1.34,2.355,2.355,0,0,0,1.615.487H56.117q2.041,0,2.041-1.858a1.832,1.832,0,0,0-1.005-1.676l-.823-.335a1.648,1.648,0,0,1-.716-.792,4.963,4.963,0,0,1-.229-1.8V38.761a7.382,7.382,0,0,1,1.034-.538,6.562,6.562,0,0,1,2.422-.487,3.587,3.587,0,0,1,2.818,1.142,4.957,4.957,0,0,1,1.021,3.4V54.125a5.444,5.444,0,0,1-.212,1.813,1.517,1.517,0,0,1-.763.807l-.792.335a1.828,1.828,0,0,0-1.036,1.676q0,1.861,2.072,1.858h12q2.072,0,2.072-1.858a1.825,1.825,0,0,0-1.036-1.676l-.762-.335a1.615,1.615,0,0,1-.746-.792,4.926,4.926,0,0,1-.228-1.8V40.234a13.439,13.439,0,0,0-.11-1.508A7.84,7.84,0,0,1,74,38.238a5.1,5.1,0,0,1,2.133-.5,3.083,3.083,0,0,1,2.6,1.127,6.676,6.676,0,0,1,1.112,3.351l1.279,11.912a3.263,3.263,0,0,1-.137,1.813,1.934,1.934,0,0,1-.807.807l-.823.335a1.832,1.832,0,0,0-1.005,1.676q0,1.861,2.041,1.858H92.732a2.292,2.292,0,0,0,1.6-.487,1.731,1.731,0,0,0,.533-1.34,1.8,1.8,0,0,0-.32-1.081" transform="translate(28.712 21.385)" fill="#ebe4d8"/>
    <path id="Path_202" data-name="Path 202" d="M100.952,48.174a1.984,1.984,0,0,0-1.762,1.219,11.9,11.9,0,0,1-2.716,2.879,11.53,11.53,0,0,1-5.14,1.6c-4.959.333-7.076-1.89-8-3.879l14.095-4.8a5.709,5.709,0,0,0,3.351-2.246,6.065,6.065,0,0,0,.636-3.439A9.049,9.049,0,0,0,99.45,35a10.937,10.937,0,0,0-4.895-3.686,16.007,16.007,0,0,0-7.32-.885A17.281,17.281,0,0,0,78.8,33.17,13.67,13.67,0,0,0,73.816,39.2a17.245,17.245,0,0,0-1.2,8.324,14.687,14.687,0,0,0,2.617,7.5,13.641,13.641,0,0,0,5.908,4.671,17.319,17.319,0,0,0,8.276,1.156,16.923,16.923,0,0,0,6.986-1.99A12.263,12.263,0,0,0,100.85,54.8a8.308,8.308,0,0,0,1.364-5.052,2.08,2.08,0,0,0-.421-1.2.966.966,0,0,0-.841-.372M81.906,38.786A6.918,6.918,0,0,1,83.66,35.9a4.16,4.16,0,0,1,2.507-1.1,3.676,3.676,0,0,1,3.172,1.371,8.884,8.884,0,0,1,2.136,4.746,2.821,2.821,0,0,1-1.709,3.009l-7.479,2.6a13.192,13.192,0,0,1-.379-7.743" transform="translate(50.233 21.018)" fill="#ebe4d8"/>
    <path id="Path_203" data-name="Path 203" d="M47.582,9.882a18.074,18.074,0,0,1,8.545,1.934,14.239,14.239,0,0,1,5.727,5.392,15.405,15.405,0,0,1,2.056,8.027,14.34,14.34,0,0,1-2.132,7.707,15.124,15.124,0,0,1-5.88,5.438,18.265,18.265,0,0,1-8.713,2,17.953,17.953,0,0,1-8.545-1.95A14.311,14.311,0,0,1,32.913,33a15.486,15.486,0,0,1-2.056-8.043,14.262,14.262,0,0,1,2.117-7.677,15.051,15.051,0,0,1,5.88-5.407,18.351,18.351,0,0,1,8.728-2m2.224,25.986a3.568,3.568,0,0,0,2.407-1.752,8.526,8.526,0,0,0,1.021-3.976,23.392,23.392,0,0,0-.625-6.062,23.657,23.657,0,0,0-1.934-5.834,8.659,8.659,0,0,0-2.62-3.26,3.7,3.7,0,0,0-3.031-.625,3.506,3.506,0,0,0-2.391,1.706A8.265,8.265,0,0,0,41.6,20.011a23.924,23.924,0,0,0,.625,6.108,23.5,23.5,0,0,0,1.934,5.864,8.374,8.374,0,0,0,2.62,3.229,3.957,3.957,0,0,0,3.031.655" transform="translate(21.367 6.844)" fill="#ebe4d8"/>
    <path id="Path_204" data-name="Path 204" d="M73.666,34.327a1.011,1.011,0,0,0-.838-.411,1.438,1.438,0,0,0-.975.472q-.426.442-.883.99a4.777,4.777,0,0,1-1.1.96,2.932,2.932,0,0,1-1.615.411A2.641,2.641,0,0,1,66,35.682a5.219,5.219,0,0,1-.792-3.138V18.074h4.174a6.027,6.027,0,0,0,3.458-.762,2.289,2.289,0,0,0,1.051-1.919,1.385,1.385,0,0,0-.533-1.188,2.433,2.433,0,0,0-1.478-.4H65.213V8.142a2.244,2.244,0,0,0-.548-1.63,1.986,1.986,0,0,0-1.493-.564,2.851,2.851,0,0,0-1.569.533A6.536,6.536,0,0,0,60.064,7.96l-3.351,4.265a6.182,6.182,0,0,1-1.188,1.219,1.961,1.961,0,0,1-1.158.366H52.783a2.192,2.192,0,0,0-1.462.487,1.625,1.625,0,0,0-.579,1.31,1.686,1.686,0,0,0,.35,1.081,2.694,2.694,0,0,0,1.021.746l1.036.3a2.871,2.871,0,0,1,1.1.731,2.264,2.264,0,0,1,.366,1.462V34.646q0,4.448,2.452,6.626t6.931,2.178a11.517,11.517,0,0,0,5.072-1.081,9.284,9.284,0,0,0,3.549-2.879,6.7,6.7,0,0,0,1.34-3.93,1.873,1.873,0,0,0-.289-1.234" transform="translate(35.137 4.12)" fill="#ebe4d8"/>
    <path id="Path_205" data-name="Path 205" d="M45.5,42.772a6.384,6.384,0,0,0-1.173-1.036,6.072,6.072,0,0,1-1.158-.823,9.422,9.422,0,0,1-1.066-1.249L32.993,26.518l3.448-2.755a19.709,19.709,0,0,1,3.031-2.041,10.834,10.834,0,0,1,2.6-.914,3.88,3.88,0,0,0,2.041-.944,2.019,2.019,0,0,0,.487-1.34,1.634,1.634,0,0,0-.564-1.325,2.372,2.372,0,0,0-1.569-.472H31.536A2.322,2.322,0,0,0,30,17.2a1.669,1.669,0,0,0-.564,1.356,1.827,1.827,0,0,0,.244.975,2.055,2.055,0,0,0,.823.7l.823.335q.975.4,1.036,1.051a1.669,1.669,0,0,1-.792,1.356l-8.53,6.953V2.285A2.4,2.4,0,0,0,22.473.64,2.057,2.057,0,0,0,20.843,0,6.122,6.122,0,0,0,19.2.228q-.823.228-2.133.716L10.912,3.229A3.779,3.779,0,0,0,9.5,4.082,1.665,1.665,0,0,0,9.084,5.24a1.537,1.537,0,0,0,.3.99,2.172,2.172,0,0,0,.914.625l1.036.183a1.612,1.612,0,0,1,.807.594,2.565,2.565,0,0,1,.289,1.417v31.18L12.3,46.223a2.4,2.4,0,0,0,.525,1.659,2.058,2.058,0,0,0,1.615.677,6.189,6.189,0,0,0,1.65-.19q.828-.211,2.148-.667l6.206-2.141a3.789,3.789,0,0,0,1.435-.821,1.662,1.662,0,0,0,.438-1.147,1.537,1.537,0,0,0-.281-1,2.166,2.166,0,0,0-.9-.645L24.1,41.743a1.62,1.62,0,0,1-.794-.613,2.565,2.565,0,0,1-.256-1.422h-.015V34.481l2.787-2.231,4.89,7.141a4.892,4.892,0,0,1,.868,1.615q.107.548-.716.944l-.762.335a1.773,1.773,0,0,0-.731.64,1.725,1.725,0,0,0-.213.883,1.752,1.752,0,0,0,.518,1.34,1.919,1.919,0,0,0,1.371.487h12.8a2.374,2.374,0,0,0,1.538-.457,1.522,1.522,0,0,0,.564-1.249,1.739,1.739,0,0,0-.442-1.158" transform="translate(6.29 0.001)" fill="#ebe4d8"/>
    <path id="Path_206" data-name="Path 206" d="M73.127,14.642A7.038,7.038,0,0,0,77.8,13.2,4.8,4.8,0,0,0,79.52,9.326,4.677,4.677,0,0,0,77.8,5.514,7.15,7.15,0,0,0,73.127,4.1a7.162,7.162,0,0,0-4.656,1.413,4.66,4.66,0,0,0-1.736,3.811A4.78,4.78,0,0,0,68.471,13.2a7.05,7.05,0,0,0,4.656,1.444" transform="translate(46.212 2.841)" fill="#ebe4d8"/>
    <path id="Path_207" data-name="Path 207" d="M82.867,33.3a2.336,2.336,0,0,0-.907-.63l-1.044-.184a1.558,1.558,0,0,1-.831-.6,2.728,2.728,0,0,1-.276-1.43l.034-16.681a2.385,2.385,0,0,0-.584-1.659,2.168,2.168,0,0,0-1.691-.647,5.949,5.949,0,0,0-1.6.232q-.83.231-2.183.753l-6.208,2.273a3.829,3.829,0,0,0-1.428.861,1.678,1.678,0,0,0-.415,1.168,1.5,1.5,0,0,0,.322,1,2.349,2.349,0,0,0,.907.63l1.044.184a1.546,1.546,0,0,1,.831.6,2.712,2.712,0,0,1,.276,1.43l-.032,16.681a2.377,2.377,0,0,0,.584,1.659,2.165,2.165,0,0,0,1.691.647,5.959,5.959,0,0,0,1.6-.232q.828-.231,2.182-.753l6.208-2.273a3.8,3.8,0,0,0,1.428-.861A1.679,1.679,0,0,0,83.19,34.3a1.5,1.5,0,0,0-.323-1" transform="translate(45.52 7.944)" fill="#ebe4d8"/>
  </g>
</svg>
